<mxfile host="65bd71144e">
    <diagram id="4ovhh4tBg3nSh22-tFnX" name="Page-1">
        <mxGraphModel dx="1431" dy="702" grid="1" gridSize="10" guides="1" tooltips="1" connect="1" arrows="1" fold="1" page="1" pageScale="1" pageWidth="827" pageHeight="1169" math="0" shadow="0">
            <root>
                <mxCell id="0"/>
                <mxCell id="1" parent="0"/>
                <mxCell id="2" value="" style="rounded=0;whiteSpace=wrap;html=1;" vertex="1" parent="1">
                    <mxGeometry x="60" y="95" width="710" height="230" as="geometry"/>
                </mxCell>
                <mxCell id="3" value="Macroeconomical&lt;br&gt;Variables and Indexes" style="rounded=1;whiteSpace=wrap;html=1;fillColor=#99FFFF;" vertex="1" parent="1">
                    <mxGeometry x="69" y="180" width="140" height="60" as="geometry"/>
                </mxCell>
                <mxCell id="4" value="Web Search Related to Cryptocurrencies Generally" style="rounded=1;whiteSpace=wrap;html=1;fillColor=#66FFB3;" vertex="1" parent="1">
                    <mxGeometry x="209" y="180" width="140" height="60" as="geometry"/>
                </mxCell>
                <mxCell id="5" value="Fundamental/Technical&lt;br&gt;Currency Specific" style="rounded=1;whiteSpace=wrap;html=1;fillColor=#B3FF66;" vertex="1" parent="1">
                    <mxGeometry x="349" y="180" width="140" height="60" as="geometry"/>
                </mxCell>
                <mxCell id="6" value="Web Search&lt;br&gt;Currency Specific" style="rounded=1;whiteSpace=wrap;html=1;fillColor=#FFFF66;" vertex="1" parent="1">
                    <mxGeometry x="489" y="180" width="140" height="60" as="geometry"/>
                </mxCell>
                <mxCell id="7" value="Currency Price&lt;br&gt;or Returns&amp;nbsp;" style="rounded=1;whiteSpace=wrap;html=1;fillColor=#FF66B3;" vertex="1" parent="1">
                    <mxGeometry x="629" y="180" width="130" height="60" as="geometry"/>
                </mxCell>
                <mxCell id="10" value="General Market State" style="rounded=0;whiteSpace=wrap;html=1;fillColor=#CCFFE6;" vertex="1" parent="1">
                    <mxGeometry x="130" y="100" width="150" height="30" as="geometry"/>
                </mxCell>
                <mxCell id="12" value="Fundamental" style="rounded=0;whiteSpace=wrap;html=1;fillColor=#CCCCFF;" vertex="1" parent="1">
                    <mxGeometry x="69" y="140" width="141" height="30" as="geometry"/>
                </mxCell>
                <mxCell id="13" value="Speculative&lt;br&gt;" style="rounded=0;whiteSpace=wrap;html=1;fillColor=#FFCCFF;" vertex="1" parent="1">
                    <mxGeometry x="209" y="140" width="141" height="30" as="geometry"/>
                </mxCell>
                <mxCell id="14" value="Fundamental" style="rounded=0;whiteSpace=wrap;html=1;fillColor=#CCCCFF;" vertex="1" parent="1">
                    <mxGeometry x="350" y="140" width="141" height="30" as="geometry"/>
                </mxCell>
                <mxCell id="15" value="Speculative&lt;br&gt;" style="rounded=0;whiteSpace=wrap;html=1;fillColor=#FFCCFF;" vertex="1" parent="1">
                    <mxGeometry x="491" y="140" width="139" height="30" as="geometry"/>
                </mxCell>
                <mxCell id="16" value="Currency Specific Market State" style="rounded=0;whiteSpace=wrap;html=1;fillColor=#CCFFE6;" vertex="1" parent="1">
                    <mxGeometry x="414" y="100" width="150" height="30" as="geometry"/>
                </mxCell>
                <mxCell id="18" value="" style="endArrow=none;dashed=1;html=1;" edge="1" parent="1">
                    <mxGeometry width="50" height="50" relative="1" as="geometry">
                        <mxPoint x="350" y="330" as="sourcePoint"/>
                        <mxPoint x="350" y="90" as="targetPoint"/>
                    </mxGeometry>
                </mxCell>
                <mxCell id="19" value="" style="endArrow=none;dashed=1;html=1;entryX=0.411;entryY=0;entryDx=0;entryDy=0;exitX=0.412;exitY=1.004;exitDx=0;exitDy=0;exitPerimeter=0;entryPerimeter=0;" edge="1" parent="1">
                    <mxGeometry width="50" height="50" relative="1" as="geometry">
                        <mxPoint x="629.73" y="325.9200000000001" as="sourcePoint"/>
                        <mxPoint x="629" y="95" as="targetPoint"/>
                    </mxGeometry>
                </mxCell>
                <mxCell id="21" value="Target - lagged" style="rounded=0;whiteSpace=wrap;html=1;fillColor=#FF66B3;" vertex="1" parent="1">
                    <mxGeometry x="630" y="140" width="130" height="30" as="geometry"/>
                </mxCell>
                <mxCell id="24" value="RGDP - US&lt;br&gt;USD - EUR&lt;br&gt;CPI - US&lt;br&gt;Dow Jones&lt;br&gt;S&amp;amp;P 500" style="rounded=0;whiteSpace=wrap;html=1;fillColor=#E6E6E6;" vertex="1" parent="1">
                    <mxGeometry x="69" y="240" width="141" height="80" as="geometry"/>
                </mxCell>
                <mxCell id="25" value="Google Trends - Cryptocurrencies&lt;br&gt;&lt;br&gt;Wiki Trends - Cryptocurrencies" style="rounded=0;whiteSpace=wrap;html=1;fillColor=#E6E6E6;" vertex="1" parent="1">
                    <mxGeometry x="210" y="240" width="141" height="80" as="geometry"/>
                </mxCell>
                <mxCell id="26" value="Number of Adresses&lt;br&gt;Fees&lt;br&gt;Difficulty&lt;br&gt;Hashrate&lt;br&gt;Transactions&lt;br&gt;" style="rounded=0;whiteSpace=wrap;html=1;fillColor=#E6E6E6;" vertex="1" parent="1">
                    <mxGeometry x="351" y="240" width="141" height="80" as="geometry"/>
                </mxCell>
                <mxCell id="27" value="Google Trends - Specific Currency&lt;br style=&quot;border-color: var(--border-color);&quot;&gt;&lt;br style=&quot;border-color: var(--border-color);&quot;&gt;Wiki Trends - Specific Currency" style="rounded=0;whiteSpace=wrap;html=1;fillColor=#E6E6E6;" vertex="1" parent="1">
                    <mxGeometry x="489" y="240" width="141" height="80" as="geometry"/>
                </mxCell>
            </root>
        </mxGraphModel>
    </diagram>
</mxfile>